<svg width="56" height="15" viewBox="0 0 56 15" fill="none" xmlns="http://www.w3.org/2000/svg">
<g clip-path="url(#clip0_1488_7)">
<path d="M12.0993 0.201715H14.536C14.6585 0.201715 14.7746 0.265735 14.839 0.37457L18.7069 7.23116L21.9365 1.59736C22.4329 0.733085 23.3612 0.195312 24.3668 0.195312H25.9913L20.1702 9.89441V14.4783C20.1702 14.6703 20.0155 14.824 19.8221 14.824H17.6497C17.4563 14.824 17.3016 14.6703 17.3016 14.4783V9.89441L11.8028 0.72028C11.6674 0.489807 11.8285 0.201715 12.0993 0.201715Z" fill="black"/>
<path d="M39.9362 0.201715V14.4847C39.9362 14.6767 39.7815 14.8304 39.5881 14.8304H37.609C37.4994 14.8304 37.3963 14.7792 37.3318 14.696L29.8927 4.8432V14.4911C29.8927 14.6831 29.738 14.8368 29.5446 14.8368H27.4301C27.2367 14.8368 27.082 14.6831 27.082 14.4911V0.541023C27.082 0.348962 27.2367 0.195312 27.4301 0.195312H29.4414C29.551 0.195312 29.6542 0.246529 29.7186 0.336158L37.132 10.1953V2.9802C37.132 1.44371 38.3826 0.201715 39.9297 0.201715H39.9362Z" fill="black"/>
<path d="M55.9983 7.5032C55.9983 9.03969 55.6953 10.3713 55.0829 11.5045C54.4769 12.6376 53.6389 13.5019 52.5753 14.1037C51.5116 14.7055 50.3061 15.0064 48.9588 15.0064C47.6115 15.0064 46.3996 14.7055 45.3359 14.1037C44.2723 13.5019 43.4342 12.6376 42.8283 11.5045C42.2223 10.3713 41.9258 9.03969 41.9258 7.5032C41.9258 5.96671 42.2288 4.63508 42.8283 3.50192C43.4278 2.36876 44.2658 1.50448 45.3359 0.902689C46.3996 0.300896 47.6115 0 48.9588 0C50.3061 0 51.5052 0.300896 52.5753 0.902689C53.6454 1.50448 54.4769 2.36876 55.0829 3.50192C55.6889 4.63508 55.9983 5.96671 55.9983 7.5032ZM53.2199 7.5032C53.2199 6.41485 53.0394 5.48656 52.6848 4.71191C52.3303 3.93726 51.8275 3.35467 51.1893 2.95775C50.5446 2.56082 49.8033 2.36236 48.9588 2.36236C48.1143 2.36236 47.5535 2.56082 46.9089 2.95775C46.2642 3.35467 45.7614 3.93726 45.4068 4.71191C45.0523 5.48656 44.8718 6.41485 44.8718 7.5032C44.8718 8.59155 45.0523 9.51985 45.4068 10.2945C45.7614 11.0691 46.0837 11.6517 46.7284 12.0487C47.373 12.4456 48.1143 12.644 48.9588 12.644C49.8033 12.644 50.5446 12.4456 51.1893 12.0487C51.8275 11.6517 52.3303 11.0691 52.6848 10.2945C53.0394 9.52625 53.2199 8.59155 53.2199 7.5032Z" fill="black"/>
<path d="M8.74133 0.203125H7.39403C6.23368 0.203125 5.1958 0.913752 4.78323 1.9893L0.0257782 14.3645C-0.0580252 14.5885 0.109582 14.8318 0.348099 14.8318H2.67525C2.81708 14.8318 2.946 14.7422 2.99758 14.6077L7.29089 3.18648L9.45688 9.27483H7.64544C6.2788 9.27483 5.06043 10.1199 4.58984 11.3875H10.2305L11.4746 14.6077C11.5262 14.7422 11.6551 14.8254 11.7969 14.8254H14.1176C14.3626 14.8254 14.5238 14.5821 14.44 14.3581L9.08944 0.440001C9.03142 0.299156 8.89604 0.203125 8.74133 0.203125Z" fill="black"/>
</g>
<defs>
<clipPath id="clip0_1488_7">
<rect width="56" height="15" fill="white"/>
</clipPath>
</defs>
</svg>
