<svg width="160" height="43" viewBox="0 0 160 43" fill="none" xmlns="http://www.w3.org/2000/svg">
<g clip-path="url(#clip0_1482_3374)">
<path d="M34.5708 0.584759H41.5329C41.8829 0.584759 42.2144 0.768284 42.3986 1.08028L53.4496 20.7358L62.6772 4.58561C64.0954 2.10802 66.7476 0.566406 69.6209 0.566406H74.2623L57.6306 28.3705V41.5109C57.6306 42.0615 57.1885 42.502 56.636 42.502H50.429C49.8764 42.502 49.4344 42.0615 49.4344 41.5109V28.3705L33.7236 2.07131C33.3368 1.41062 33.7972 0.584759 34.5708 0.584759Z" fill="black"/>
<path d="M114.103 0.584759V41.5293C114.103 42.0798 113.661 42.5203 113.109 42.5203H107.454C107.141 42.5203 106.846 42.3735 106.662 42.1349L85.4073 13.8903V41.5476C85.4073 42.0982 84.9653 42.5387 84.4128 42.5387H78.3715C77.819 42.5387 77.377 42.0982 77.377 41.5476V1.55744C77.377 1.00687 77.819 0.566406 78.3715 0.566406H84.1181C84.4312 0.566406 84.7259 0.713226 84.91 0.970162L106.091 29.2331V8.54976C106.091 4.14515 109.664 0.584759 114.085 0.584759H114.103Z" fill="black"/>
<path d="M159.998 21.5092C159.998 25.9138 159.133 29.7311 157.383 32.9795C155.651 36.2279 153.257 38.7055 150.218 40.4306C147.179 42.1558 143.735 43.0184 139.885 43.0184C136.036 43.0184 132.573 42.1558 129.534 40.4306C126.495 38.7055 124.101 36.2279 122.37 32.9795C120.638 29.7311 119.791 25.9138 119.791 21.5092C119.791 17.1046 120.657 13.2872 122.37 10.0388C124.082 6.79044 126.477 4.31285 129.534 2.58771C132.573 0.862569 136.036 0 139.885 0C143.735 0 147.161 0.862569 150.218 2.58771C153.276 4.31285 155.651 6.79044 157.383 10.0388C159.114 13.2872 159.998 17.1046 159.998 21.5092ZM152.06 21.5092C152.06 18.3892 151.544 15.7281 150.531 13.5075C149.518 11.2868 148.082 9.61673 146.258 8.47887C144.416 7.34102 142.298 6.77209 139.885 6.77209C137.473 6.77209 135.87 7.34102 134.028 8.47887C132.187 9.61673 130.75 11.2868 129.737 13.5075C128.724 15.7281 128.208 18.3892 128.208 21.5092C128.208 24.6291 128.724 27.2902 129.737 29.5109C130.75 31.7315 131.671 33.4016 133.513 34.5395C135.354 35.6773 137.473 36.2463 139.885 36.2463C142.298 36.2463 144.416 35.6773 146.258 34.5395C148.082 33.4016 149.518 31.7315 150.531 29.5109C151.544 27.3086 152.06 24.6291 152.06 21.5092Z" fill="black"/>
<path d="M24.9738 0.582031H21.1244C17.8091 0.582031 14.8438 2.61916 13.665 5.70239L0.0722569 41.1778C-0.167181 41.8202 0.311695 42.5176 0.993173 42.5176H7.64219C8.04739 42.5176 8.41576 42.2606 8.56311 41.8752L20.8297 9.13431L27.0183 26.5876H21.8427C17.938 26.5876 14.457 29.0101 13.1124 32.6439H29.2285L32.7832 41.8752C32.9305 42.2606 33.2989 42.4992 33.7041 42.4992H40.3347C41.0346 42.4992 41.4951 41.8018 41.2556 41.1595L25.9684 1.26108C25.8027 0.857319 25.4159 0.582031 24.9738 0.582031Z" fill="black"/>
</g>
<defs>
<clipPath id="clip0_1482_3374">
<rect width="160" height="43" fill="white"/>
</clipPath>
</defs>
</svg>
