<svg width="112" height="30" viewBox="0 0 112 30" fill="none" xmlns="http://www.w3.org/2000/svg">
<g clip-path="url(#clip0_1487_257)">
<path d="M24.1986 0.403429H29.0721C29.317 0.403429 29.5491 0.53147 29.678 0.74914L37.4137 14.4623L43.8731 3.19472C44.8658 1.46617 46.7224 0.390625 48.7337 0.390625H51.9826L40.3404 19.7888V28.9566C40.3404 29.3407 40.031 29.648 39.6442 29.648H35.2993C34.9125 29.648 34.6031 29.3407 34.6031 28.9566V19.7888L23.6055 1.44056C23.3348 0.979613 23.6571 0.403429 24.1986 0.403429Z" fill="black"/>
<path d="M79.8724 0.403429V28.9694C79.8724 29.3535 79.5629 29.6608 79.1762 29.6608H75.2181C74.9989 29.6608 74.7926 29.5584 74.6637 29.3919L59.7853 9.6864V28.9822C59.7853 29.3663 59.4759 29.6736 59.0891 29.6736H54.8603C54.4735 29.6736 54.1641 29.3663 54.1641 28.9822V1.08205C54.1641 0.697923 54.4735 0.390625 54.8603 0.390625H58.8828C59.102 0.390625 59.3083 0.493058 59.4372 0.672315L74.264 20.3906V5.96041C74.264 2.88742 76.7652 0.403429 79.8595 0.403429H79.8724Z" fill="black"/>
<path d="M111.997 15.0064C111.997 18.0794 111.391 20.7426 110.166 23.009C108.954 25.2753 107.278 27.0038 105.151 28.2074C103.023 29.411 100.612 30.0128 97.9176 30.0128C95.223 30.0128 92.7992 29.411 90.6719 28.2074C88.5446 27.0038 86.8685 25.2753 85.6566 23.009C84.4446 20.7426 83.8516 18.0794 83.8516 15.0064C83.8516 11.9334 84.4575 9.27017 85.6566 7.00384C86.8556 4.73752 88.5317 3.00896 90.6719 1.80538C92.7992 0.601793 95.223 0 97.9176 0C100.612 0 103.01 0.601793 105.151 1.80538C107.291 3.00896 108.954 4.73752 110.166 7.00384C111.378 9.27017 111.997 11.9334 111.997 15.0064ZM106.44 15.0064C106.44 12.8297 106.079 10.9731 105.37 9.42382C104.661 7.87452 103.655 6.70935 102.379 5.91549C101.089 5.12164 99.6066 4.72471 97.9176 4.72471C96.2287 4.72471 95.107 5.12164 93.8177 5.91549C92.5284 6.70935 91.5228 7.87452 90.8137 9.42382C90.1046 10.9731 89.7436 12.8297 89.7436 15.0064C89.7436 17.1831 90.1046 19.0397 90.8137 20.589C91.5228 22.1383 92.1674 23.3035 93.4567 24.0973C94.746 24.8912 96.2287 25.2881 97.9176 25.2881C99.6066 25.2881 101.089 24.8912 102.379 24.0973C103.655 23.3035 104.661 22.1383 105.37 20.589C106.079 19.0525 106.44 17.1831 106.44 15.0064Z" fill="black"/>
<path d="M17.4827 0.40625H14.7881C12.4674 0.40625 10.3916 1.8275 9.56646 3.97859L0.0515564 28.7289C-0.11605 29.1771 0.219163 29.6636 0.696198 29.6636H5.35051C5.63415 29.6636 5.89201 29.4844 5.99515 29.2155L14.5818 6.37296L18.9138 18.5497H15.2909C12.5576 18.5497 10.1209 20.2398 9.17968 22.775H20.4609L22.9492 29.2155C23.0524 29.4844 23.3102 29.6508 23.5939 29.6508H28.2353C28.7252 29.6508 29.0475 29.1642 28.8799 28.7161L18.1789 0.880002C18.0628 0.598311 17.7921 0.40625 17.4827 0.40625Z" fill="black"/>
</g>
<defs>
<clipPath id="clip0_1487_257">
<rect width="112" height="30" fill="white"/>
</clipPath>
</defs>
</svg>
